<?xml version="1.0" encoding="UTF-8" standalone="no"?>
<!DOCTYPE svg PUBLIC "-//W3C//DTD SVG 1.1//EN" "http://www.w3.org/Graphics/SVG/1.1/DTD/svg11.dtd">
<svg xmlns="http://www.w3.org/2000/svg" version="1.1" viewBox="0 0 462 540">
<g strokeWidth="2.00" fill="none" strokeLinecap="butt">
<path stroke="#88aa64" vector-effect="non-scaling-stroke" d="
  M 108.71 211.25
  L 108.00 211.79"
/>
<path stroke="#9a4e36" vector-effect="non-scaling-stroke" d="
  M 314.29 211.25
  L 313.75 211.79"
/>
<path stroke="#80785b" vector-effect="non-scaling-stroke" d="
  M 208.04 212.00
  L 207.71 211.25"
/>
</g>
<path fill="#f8b332" d="
  M 2.24 0.00
  L 101.31 0.00
  Q 105.43 35.28 109.37 70.61
  Q 109.70 73.52 111.00 76.14
  Q 126.53 107.35 142.18 138.43
  A 0.60 0.59 -20.0 0 1 141.78 139.28
  L 116.25 145.06
  A 0.63 0.61 -3.4 0 0 115.77 145.59
  L 108.71 211.25
  L 108.00 211.79
  C 105.62 211.89 102.95 211.50 100.88 211.50
  Q 51.90 211.53 2.77 211.46
  A 0.50 0.50 0.0 0 1 2.27 210.96
  L 2.24 0.00
  Z"
/>
<path fill="#e8501f" d="
  M 207.81 0.00
  L 306.81 0.00
  C 309.78 23.63 312.43 47.32 315.16 70.98
  Q 315.51 73.96 316.85 76.65
  Q 332.31 107.68 347.73 138.36
  A 0.65 0.65 0.0 0 1 347.29 139.28
  L 321.96 145.03
  A 0.88 0.87 86.8 0 0 321.29 145.79
  L 314.29 211.25
  L 313.75 211.79
  Q 313.63 211.77 313.54 211.66
  A 0.47 0.44 67.9 0 0 313.20 211.50
  Q 264.22 211.50 215.25 211.50
  Q 212.67 211.50 208.04 212.00
  L 207.71 211.25
  L 207.81 0.00
  Z"
/>
<path fill="#18a096" d="
  M 108.71 211.25
  L 108.82 211.48
  Q 108.83 211.50 108.85 211.50
  Q 157.92 211.50 207.00 211.52
  Q 207.40 211.52 207.71 211.25
  L 208.04 212.00
  Q 208.24 216.39 208.74 220.75
  Q 212.30 251.92 215.98 283.03
  Q 216.33 285.92 217.65 288.53
  Q 233.26 319.20 248.54 350.02
  A 0.49 0.48 -19.7 0 1 248.21 350.70
  L 222.80 356.59
  A 0.74 0.73 86.7 0 0 222.25 357.22
  L 215.01 422.56
  A 0.78 0.77 -87.1 0 1 214.24 423.26
  L 109.55 423.24
  A 1.05 1.05 0.0 0 1 108.50 422.19
  Q 108.50 318.49 108.50 214.00
  Q 108.50 213.53 108.00 211.79
  L 108.71 211.25
  Z"
/>
<path fill="#4b4b4d" d="
  M 314.29 211.25
  Q 314.41 211.26 314.51 211.39
  A 0.28 0.27 -17.4 0 0 314.73 211.50
  L 412.72 211.50
  A 0.57 0.57 0.0 0 1 413.29 212.00
  Q 417.46 247.32 421.44 282.59
  Q 421.77 285.48 423.08 288.07
  Q 438.79 319.13 454.18 350.08
  A 0.44 0.43 -19.2 0 1 453.88 350.69
  L 428.47 356.55
  A 0.86 0.85 87.2 0 0 427.81 357.29
  L 420.59 422.47
  A 0.58 0.58 0.0 0 1 420.01 423.00
  L 314.93 423.01
  A 0.94 0.93 -90.0 0 1 314.00 422.07
  Q 314.00 319.16 314.00 215.64
  C 314.00 214.39 314.67 213.21 313.75 211.79
  L 314.29 211.25
  Z"
/>
<path fill="#4b4b4d" d="
  M 14.86 503.17
  C 20.60 511.62 34.09 511.02 41.70 504.86
  A 0.63 0.63 0.0 0 1 42.54 504.90
  L 48.22 510.62
  A 0.55 0.55 0.0 0 1 48.20 511.42
  C 38.29 520.33 22.51 520.94 11.93 513.60
  C 1.55 506.41 -0.24 489.49 5.31 478.90
  C 13.48 463.35 34.58 461.32 47.52 472.84
  A 0.65 0.65 0.0 0 1 47.52 473.81
  L 41.89 478.91
  A 0.64 0.63 -46.9 0 1 41.07 478.94
  C 23.81 465.49 2.80 485.41 14.86 503.17
  Z"
/>
<path fill="#4b4b4d" d="
  M 408.21 473.67
  C 406.85 475.38 404.35 477.50 402.61 478.96
  A 0.62 0.61 43.4 0 1 401.83 478.98
  C 393.19 472.23 379.44 473.15 374.23 483.94
  C 366.37 500.20 381.70 515.00 398.18 507.61
  C 399.59 506.98 400.92 505.58 402.55 504.86
  A 0.78 0.77 55.6 0 1 403.42 505.03
  L 408.98 510.74
  A 0.45 0.44 -43.3 0 1 408.95 511.39
  C 392.71 525.64 366.19 518.77 363.03 496.01
  Q 361.48 484.86 367.55 476.33
  C 376.84 463.28 396.85 461.76 408.17 472.91
  A 0.57 0.57 0.0 0 1 408.21 473.67
  Z"
/>
<path fill="#4b4b4d" d="
  M 65.50 496.92
  L 65.50 507.58
  A 0.42 0.42 0.0 0 0 65.92 508.00
  L 93.62 508.00
  A 0.42 0.42 0.0 0 1 94.04 508.42
  L 93.98 516.83
  A 0.42 0.42 0.0 0 1 93.56 517.25
  L 56.44 517.25
  A 0.42 0.42 0.0 0 1 56.02 516.83
  L 55.97 466.67
  A 0.42 0.42 0.0 0 1 56.39 466.25
  L 93.65 466.25
  A 0.42 0.42 0.0 0 1 94.07 466.67
  L 94.04 475.33
  A 0.42 0.42 0.0 0 1 93.62 475.75
  L 65.92 475.75
  A 0.42 0.42 0.0 0 0 65.50 476.17
  L 65.50 487.08
  A 0.42 0.42 0.0 0 0 65.92 487.50
  L 92.83 487.50
  A 0.42 0.42 0.0 0 1 93.25 487.92
  L 93.25 496.08
  A 0.42 0.42 0.0 0 1 92.83 496.50
  L 65.92 496.50
  A 0.42 0.42 0.0 0 0 65.50 496.92
  Z"
/>
<path fill="#4b4b4d" d="
  M 114.25 501.00
  L 114.25 516.75
  A 0.50 0.50 0.0 0 1 113.75 517.25
  L 105.12 517.25
  A 0.63 0.62 -90.0 0 1 104.50 516.62
  L 104.50 466.57
  A 0.31 0.31 0.0 0 1 104.81 466.26
  Q 116.78 466.24 128.76 466.26
  C 135.17 466.27 141.25 468.69 144.77 474.21
  C 150.46 483.16 146.80 496.82 135.27 499.04
  Q 134.24 499.24 134.94 500.03
  L 149.78 516.53
  Q 150.43 517.26 149.46 517.26
  L 138.76 517.24
  A 1.10 1.10 0.0 0 1 137.93 516.86
  L 123.89 500.87
  A 1.11 1.06 68.3 0 0 123.08 500.50
  L 114.75 500.50
  A 0.50 0.50 0.0 0 0 114.25 501.00
  Z
  M 115.42 475.25
  Q 115.14 475.18 114.82 475.25
  A 0.72 0.71 -6.0 0 0 114.25 475.95
  L 114.25 491.20
  A 0.51 0.51 0.0 0 0 114.75 491.71
  C 119.14 491.80 133.01 492.94 135.66 489.17
  Q 139.76 483.37 135.72 477.92
  Q 134.02 475.62 131.17 475.57
  L 115.77 475.30
  Q 115.59 475.29 115.42 475.25
  Z"
/>
<path fill="#4b4b4d" d="
  M 167.75 498.93
  L 167.75 516.82
  A 0.43 0.43 0.0 0 1 167.32 517.25
  L 158.49 517.25
  A 0.43 0.43 0.0 0 1 158.06 516.82
  L 158.01 466.93
  A 0.43 0.43 0.0 0 1 158.44 466.50
  L 194.29 466.45
  A 0.43 0.43 0.0 0 1 194.72 466.88
  L 194.82 475.32
  A 0.43 0.43 0.0 0 1 194.39 475.75
  L 168.18 475.75
  A 0.43 0.43 0.0 0 0 167.75 476.18
  L 167.75 489.32
  A 0.43 0.43 0.0 0 0 168.18 489.75
  L 193.07 489.75
  A 0.43 0.43 0.0 0 1 193.50 490.18
  L 193.50 498.07
  A 0.43 0.43 0.0 0 1 193.07 498.50
  L 168.18 498.50
  A 0.43 0.43 0.0 0 0 167.75 498.93
  Z"
/>
<path fill="#4b4b4d" d="
  M 222.72 500.50
  L 214.62 500.50
  A 0.63 0.62 90.0 0 0 214.00 501.13
  L 214.00 516.62
  A 0.63 0.62 -90.0 0 1 213.38 517.25
  L 204.87 517.25
  A 0.63 0.62 -90.0 0 1 204.25 516.62
  L 204.25 466.85
  A 0.49 0.49 0.0 0 1 204.73 466.36
  C 214.07 466.26 227.89 464.85 235.83 467.57
  C 250.74 472.69 251.33 495.71 234.82 499.11
  Q 234.02 499.28 234.56 499.89
  L 249.48 516.60
  Q 250.06 517.25 249.19 517.25
  L 238.48 517.25
  A 1.07 1.07 0.0 0 1 237.68 516.89
  L 223.48 500.84
  A 1.02 1.00 -20.3 0 0 222.72 500.50
  Z
  M 234.80 477.42
  Q 233.10 475.57 230.58 475.55
  L 214.44 475.37
  A 0.44 0.44 0.0 0 0 214.00 475.81
  L 214.00 491.19
  A 0.51 0.51 0.0 0 0 214.49 491.70
  Q 226.13 492.07 230.49 491.52
  C 237.80 490.60 239.17 482.18 234.80 477.42
  Z"
/>
<path fill="#4b4b4d" d="
  M 292.85 507.77
  L 266.65 507.74
  A 0.35 0.35 0.0 0 0 266.34 507.94
  L 262.13 517.04
  A 0.35 0.35 0.0 0 1 261.82 517.24
  L 252.10 517.27
  A 0.35 0.35 0.0 0 1 251.78 516.78
  L 274.38 466.46
  A 0.35 0.35 0.0 0 1 274.70 466.25
  L 284.72 466.25
  A 0.35 0.35 0.0 0 1 285.04 466.46
  L 307.62 516.78
  A 0.35 0.35 0.0 0 1 307.30 517.28
  L 297.48 517.24
  A 0.35 0.35 0.0 0 1 297.16 517.03
  L 293.17 507.98
  A 0.35 0.35 0.0 0 0 292.85 507.77
  Z
  M 270.53 498.29
  A 0.34 0.34 0.0 0 0 270.84 498.76
  L 288.60 498.73
  A 0.34 0.34 0.0 0 0 288.92 498.26
  L 280.00 477.79
  A 0.34 0.34 0.0 0 0 279.37 477.79
  L 270.53 498.29
  Z"
/>
<path fill="#4b4b4d" d="
  M 345.00 497.04
  L 345.00 466.66
  A 0.40 0.40 0.0 0 1 345.40 466.26
  L 354.12 466.24
  A 0.63 0.63 0.0 0 1 354.75 466.87
  L 354.75 516.64
  A 0.63 0.63 0.0 0 1 354.11 517.27
  L 349.06 517.20
  A 1.09 1.09 0.0 0 1 348.23 516.79
  L 322.50 483.82
  Q 321.95 483.11 321.95 484.01
  L 321.99 516.51
  A 0.74 0.73 -0.4 0 1 321.25 517.25
  L 312.75 517.25
  A 0.50 0.50 0.0 0 1 312.25 516.75
  L 312.25 466.88
  A 0.63 0.62 -90.0 0 1 312.87 466.25
  L 319.44 466.25
  A 1.30 1.28 70.1 0 1 320.44 466.73
  L 344.49 497.22
  Q 345.00 497.87 345.00 497.04
  Z"
/>
<path fill="#4b4b4d" d="
  M 426.26 508.00
  L 453.76 508.00
  A 0.51 0.51 0.0 0 1 454.27 508.51
  L 454.29 516.64
  A 0.61 0.61 0.0 0 1 453.68 517.25
  L 417.26 517.25
  A 1.35 1.35 0.0 0 1 415.91 515.87
  Q 416.38 494.45 416.23 474.04
  C 416.22 472.30 415.72 469.23 416.20 466.73
  A 0.59 0.59 0.0 0 1 416.78 466.25
  L 453.66 466.25
  A 0.66 0.65 0.4 0 1 454.32 466.91
  L 454.27 474.90
  A 0.86 0.86 0.0 0 1 453.41 475.75
  L 426.26 475.75
  A 0.49 0.49 0.0 0 0 425.77 476.24
  L 425.71 486.89
  A 0.62 0.62 0.0 0 0 426.33 487.52
  L 452.70 487.46
  A 0.55 0.55 0.0 0 1 453.25 488.01
  L 453.25 495.75
  A 0.75 0.75 0.0 0 1 452.50 496.50
  L 426.32 496.50
  A 0.61 0.61 0.0 0 0 425.71 497.12
  L 425.77 507.51
  A 0.49 0.49 0.0 0 0 426.26 508.00
  Z"
/>
</svg>
