<?xml version="1.0" encoding="UTF-8" standalone="no"?>
<!DOCTYPE svg PUBLIC "-//W3C//DTD SVG 1.1//EN" "http://www.w3.org/Graphics/SVG/1.1/DTD/svg11.dtd">
<svg xmlns="http://www.w3.org/2000/svg" version="1.1" viewBox="0 0 1355 1547">
<g strokeWidth="2.00" fill="none" strokeLinecap="butt">
<path stroke="#7caa65" vector-effect="non-scaling-stroke" d="
  M 333.00 633.96
  L 332.75 634.04"
/>
<path stroke="#f3a88f" vector-effect="non-scaling-stroke" d="
  M 918.54 634.00
  L 918.25 634.29"
/>
<path stroke="#74795a" vector-effect="non-scaling-stroke" d="
  M 615.50 634.29
  L 615.21 633.75"
/>
</g>
<path fill="#f8b334" d="
  M 333.00 633.96
  L 332.75 634.04
  L 30.56 634.01
  A 0.56 0.55 -0.0 0 1 30.00 633.46
  L 30.00 32.00
  A 0.50 0.50 0.0 0 1 30.50 31.50
  L 312.01 31.50
  A 0.40 0.39 -3.2 0 1 312.41 31.85
  Q 324.30 135.32 336.20 238.81
  Q 336.53 241.70 337.83 244.30
  Q 383.60 335.66 429.26 427.06
  A 0.47 0.47 0.0 0 1 428.94 427.73
  L 354.26 444.67
  A 0.78 0.76 86.9 0 0 353.67 445.34
  L 333.00 633.96
  Z"
/>
<path fill="#e7511e" d="
  M 918.54 634.00
  L 918.25 634.29
  Q 917.90 634.30 917.59 634.18
  Q 917.14 634.00 916.65 634.00
  Q 766.45 634.00 616.25 633.98
  Q 615.82 633.98 615.50 634.29
  L 615.21 633.75
  L 615.24 32.01
  A 0.51 0.51 0.0 0 1 615.75 31.50
  L 897.22 31.50
  A 0.56 0.55 87.1 0 1 897.77 32.00
  Q 909.65 135.39 921.49 238.70
  Q 921.83 241.68 923.18 244.37
  Q 968.80 335.58 1014.44 426.88
  A 0.61 0.61 0.0 0 1 1014.03 427.74
  L 940.20 444.53
  A 1.64 1.63 -3.3 0 0 938.94 445.94
  Q 928.69 539.56 918.62 631.57
  Q 918.44 633.23 918.54 634.00
  Z"
/>
<path fill="#00a096" d="
  M 615.21 633.75
  L 615.50 634.29
  Q 627.17 737.73 639.04 841.20
  Q 639.37 844.09 640.67 846.70
  Q 686.30 938.29 732.15 1029.68
  A 0.45 0.45 0.0 0 1 731.85 1030.32
  L 656.96 1047.37
  A 0.32 0.31 86.3 0 0 656.72 1047.65
  L 636.14 1235.94
  A 0.90 0.90 0.0 0 1 635.24 1236.75
  L 334.22 1236.75
  A 1.22 1.22 0.0 0 1 333.00 1235.53
  Q 333.00 935.58 333.02 634.75
  Q 333.02 634.35 332.75 634.04
  L 333.00 633.96
  Q 473.75 633.98 614.50 633.87
  Q 614.85 633.87 615.21 633.75
  Z"
/>
<path fill="#ffffff" d="
  M 918.54 634.00
  L 1200.09 634.00
  A 0.66 0.66 0.0 0 1 1200.75 634.59
  Q 1212.50 738.06 1224.40 841.61
  Q 1224.73 844.50 1226.03 847.10
  Q 1271.82 938.42 1317.54 1029.81
  A 0.38 0.37 70.7 0 1 1317.29 1030.34
  L 1242.57 1047.32
  A 0.81 0.80 -3.6 0 0 1241.95 1048.02
  L 1221.38 1236.21
  A 0.61 0.60 -86.8 0 1 1220.78 1236.75
  L 918.57 1236.75
  A 0.32 0.32 0.0 0 1 918.25 1236.43
  L 918.25 634.29
  L 918.54 634.00
  Z"
/>
<path fill="#ffffff" d="
  M 161.94 1486.87
  A 0.78 0.78 0.0 0 1 161.93 1487.99
  C 141.59 1507.32 113.60 1512.50 86.70 1507.00
  C 57.83 1501.09 38.06 1481.01 32.03 1451.72
  C 21.37 1399.98 55.95 1355.12 110.00 1357.61
  C 129.18 1358.49 146.33 1365.99 160.17 1379.38
  A 0.47 0.46 45.4 0 1 160.17 1380.05
  L 142.78 1396.89
  A 0.60 0.59 -46.9 0 1 141.98 1396.92
  Q 119.05 1377.69 90.16 1386.15
  C 44.99 1399.38 46.07 1471.62 93.25 1481.79
  Q 121.69 1487.93 143.30 1469.00
  A 0.65 0.65 0.0 0 1 144.18 1469.03
  L 161.94 1486.87
  Z"
/>
<path fill="#ffffff" d="
  M 1168.63 1397.07
  Q 1147.71 1380.22 1123.31 1384.61
  C 1094.02 1389.87 1079.36 1416.53 1084.73 1444.72
  C 1092.68 1486.56 1141.02 1493.91 1169.86 1469.03
  A 0.63 0.62 46.8 0 1 1170.70 1469.06
  L 1188.51 1486.91
  A 0.64 0.64 0.0 0 1 1188.50 1487.82
  Q 1167.54 1507.58 1138.08 1508.84
  C 1100.84 1510.44 1069.63 1493.68 1059.66 1456.52
  C 1048.40 1414.56 1068.81 1369.24 1113.68 1359.66
  Q 1155.77 1350.67 1186.72 1379.28
  A 0.50 0.50 0.0 0 1 1186.73 1380.01
  L 1169.10 1397.05
  A 0.36 0.35 41.7 0 1 1168.63 1397.07
  Z"
/>
<path fill="#ffffff" d="
  M 428.81 1374.19
  C 444.04 1387.97 447.19 1412.29 438.77 1430.48
  Q 430.00 1449.44 407.58 1453.93
  Q 406.50 1454.15 407.23 1454.97
  L 450.28 1503.47
  Q 452.31 1505.76 449.25 1505.76
  L 418.57 1505.75
  A 1.34 1.31 69.1 0 1 417.57 1505.29
  L 376.03 1457.63
  A 1.14 1.14 0.0 0 0 375.18 1457.25
  L 349.75 1457.25
  A 0.50 0.50 0.0 0 0 349.25 1457.75
  L 349.25 1505.25
  A 0.50 0.50 0.0 0 1 348.75 1505.75
  L 322.37 1505.75
  A 0.63 0.62 -90.0 0 1 321.75 1505.12
  L 321.75 1361.27
  A 1.06 1.05 -89.7 0 1 322.81 1360.21
  Q 358.23 1360.32 392.98 1360.48
  Q 413.78 1360.58 428.81 1374.19
  Z
  M 390.00 1432.49
  C 424.70 1432.48 423.67 1386.06 391.99 1386.00
  Q 370.79 1385.96 349.69 1386.02
  A 0.44 0.44 0.0 0 0 349.25 1386.46
  L 349.25 1432.05
  A 0.46 0.45 0.0 0 0 349.71 1432.50
  Q 369.90 1432.50 390.00 1432.49
  Z"
/>
<path fill="#ffffff" d="
  M 691.09 1454.30
  A 0.26 0.26 0.0 0 0 690.98 1454.72
  Q 712.67 1479.09 734.26 1503.49
  Q 735.07 1504.39 734.50 1505.33
  A 0.90 0.89 15.7 0 1 733.74 1505.75
  L 702.42 1505.75
  A 1.07 1.05 69.1 0 1 701.62 1505.38
  L 660.01 1457.63
  A 1.10 1.10 0.0 0 0 659.18 1457.25
  L 633.75 1457.25
  A 0.50 0.50 0.0 0 0 633.25 1457.75
  L 633.25 1505.25
  A 0.50 0.50 0.0 0 1 632.75 1505.75
  L 606.25 1505.75
  A 0.50 0.50 0.0 0 1 605.75 1505.25
  L 605.75 1360.78
  A 0.50 0.50 0.0 0 1 606.25 1360.28
  Q 641.54 1360.24 676.74 1360.57
  C 708.19 1360.88 730.87 1384.05 726.79 1416.27
  Q 723.50 1442.33 699.50 1451.69
  C 697.05 1452.65 693.87 1453.39 691.09 1454.30
  Z
  M 676.55 1432.39
  C 707.63 1432.08 707.55 1386.06 675.99 1386.00
  Q 654.79 1385.95 633.69 1386.02
  A 0.44 0.44 0.0 0 0 633.25 1386.46
  L 633.25 1432.18
  A 0.28 0.28 0.0 0 0 633.53 1432.46
  Q 655.06 1432.61 676.55 1432.39
  Z"
/>
<path fill="#ffffff" d="
  M 1006.57 1360.25
  L 1033.21 1360.25
  A 0.33 0.33 0.0 0 1 1033.54 1360.58
  L 1033.48 1505.42
  A 0.33 0.33 0.0 0 1 1033.15 1505.75
  L 1016.53 1505.75
  A 0.33 0.33 0.0 0 1 1016.27 1505.62
  L 940.84 1408.70
  A 0.33 0.33 0.0 0 0 940.25 1408.90
  L 940.25 1505.42
  A 0.33 0.33 0.0 0 1 939.92 1505.75
  L 913.08 1505.75
  A 0.33 0.33 0.0 0 1 912.75 1505.42
  L 912.75 1360.83
  A 0.33 0.33 0.0 0 1 913.08 1360.50
  L 934.86 1360.50
  A 0.33 0.33 0.0 0 1 935.12 1360.63
  L 1005.67 1449.85
  A 0.33 0.33 0.0 0 0 1006.26 1449.64
  L 1006.24 1360.58
  A 0.33 0.33 0.0 0 1 1006.57 1360.25
  Z"
/>
<path fill="#ffffff" d="
  M 210.95 1420.43
  L 288.80 1420.42
  A 0.45 0.45 0.0 0 1 289.25 1420.87
  L 289.25 1445.55
  A 0.45 0.45 0.0 0 1 288.80 1446.00
  L 210.95 1446.00
  A 0.45 0.45 0.0 0 0 210.50 1446.45
  L 210.50 1478.30
  A 0.45 0.45 0.0 0 0 210.95 1478.75
  L 291.80 1478.75
  A 0.45 0.45 0.0 0 1 292.25 1479.20
  L 292.25 1505.30
  A 0.45 0.45 0.0 0 1 291.80 1505.75
  L 183.70 1505.75
  A 0.45 0.45 0.0 0 1 183.25 1505.30
  L 183.25 1360.95
  A 0.45 0.45 0.0 0 1 183.70 1360.50
  L 291.80 1360.50
  A 0.45 0.45 0.0 0 1 292.25 1360.95
  L 292.25 1386.55
  A 0.45 0.45 0.0 0 1 291.80 1387.00
  L 210.95 1387.00
  A 0.45 0.45 0.0 0 0 210.50 1387.45
  L 210.50 1419.98
  A 0.45 0.45 0.0 0 0 210.95 1420.43
  Z"
/>
<path fill="#ffffff" d="
  M 501.75 1452.50
  L 501.75 1505.34
  A 0.41 0.40 -90.0 0 1 501.35 1505.75
  L 474.88 1505.75
  A 0.63 0.62 -0.0 0 1 474.25 1505.13
  L 474.25 1361.04
  A 0.52 0.52 0.0 0 1 474.77 1360.52
  L 578.00 1360.50
  A 0.75 0.75 0.0 0 1 578.75 1361.25
  L 578.75 1386.50
  A 0.50 0.50 0.0 0 1 578.25 1387.00
  L 502.25 1387.00
  A 0.50 0.50 0.0 0 0 501.75 1387.50
  L 501.75 1425.99
  A 0.59 0.59 0.0 0 0 502.33 1426.58
  C 525.74 1427.20 548.02 1426.24 573.88 1426.66
  A 0.64 0.63 -89.5 0 1 574.50 1427.30
  L 574.50 1451.50
  A 0.50 0.50 0.0 0 1 574.00 1452.00
  L 502.25 1452.00
  A 0.50 0.50 0.0 0 0 501.75 1452.50
  Z"
/>
<path fill="#ffffff" d="
  M 858.00 1478.25
  L 782.65 1478.25
  A 0.42 0.42 0.0 0 0 782.27 1478.50
  L 769.99 1505.50
  A 0.42 0.42 0.0 0 1 769.61 1505.75
  L 740.76 1505.75
  A 0.42 0.42 0.0 0 1 740.38 1505.16
  L 805.20 1360.75
  A 0.42 0.42 0.0 0 1 805.58 1360.50
  L 835.05 1360.50
  A 0.42 0.42 0.0 0 1 835.43 1360.75
  L 900.24 1505.16
  A 0.42 0.42 0.0 0 1 899.86 1505.75
  L 870.84 1505.75
  A 0.42 0.42 0.0 0 1 870.46 1505.50
  L 858.38 1478.50
  A 0.42 0.42 0.0 0 0 858.00 1478.25
  Z
  M 793.58 1452.27
  A 0.34 0.34 0.0 0 0 793.89 1452.75
  L 846.75 1452.75
  A 0.34 0.34 0.0 0 0 847.06 1452.27
  L 820.63 1391.70
  A 0.34 0.34 0.0 0 0 820.01 1391.70
  L 793.58 1452.27
  Z"
/>
<path fill="#ffffff" d="
  M 1236.61 1478.75
  L 1317.14 1478.75
  A 0.61 0.61 0.0 0 1 1317.75 1479.36
  L 1317.74 1505.14
  A 0.61 0.61 0.0 0 1 1317.13 1505.75
  L 1209.36 1505.75
  A 0.61 0.61 0.0 0 1 1208.75 1505.14
  L 1208.75 1361.11
  A 0.61 0.61 0.0 0 1 1209.36 1360.50
  L 1317.14 1360.50
  A 0.61 0.61 0.0 0 1 1317.75 1361.11
  L 1317.75 1386.39
  A 0.61 0.61 0.0 0 1 1317.14 1387.00
  L 1236.64 1387.00
  A 0.61 0.61 0.0 0 0 1236.03 1387.61
  L 1235.99 1419.77
  A 0.61 0.61 0.0 0 0 1236.60 1420.38
  L 1314.14 1420.36
  A 0.61 0.61 0.0 0 1 1314.75 1420.97
  L 1314.75 1445.39
  A 0.61 0.61 0.0 0 1 1314.14 1446.00
  L 1236.61 1446.00
  A 0.61 0.61 0.0 0 0 1236.00 1446.61
  L 1236.00 1478.14
  A 0.61 0.61 0.0 0 0 1236.61 1478.75
  Z"
/>
</svg>
