<?xml version="1.0" standalone="no"?>
<!DOCTYPE svg PUBLIC "-//W3C//DTD SVG 20010904//EN"
 "http://www.w3.org/TR/2001/REC-SVG-20010904/DTD/svg10.dtd">
<svg version="1.0" xmlns="http://www.w3.org/2000/svg"
 width="512.000000pt" height="512.000000pt" viewBox="0 0 512.000000 512.000000"
 preserveAspectRatio="xMidYMid meet">
<metadata>
Created by potrace 1.14, written by Peter Selinger 2001-2017
</metadata>
<g transform="translate(0.000000,512.000000) scale(0.100000,-0.100000)"
fill="#000000" stroke="none">
<path d="M2300 4115 l0 -1005 590 0 589 0 6 33 c3 17 21 158 41 312 19 154 38
283 42 286 4 3 67 18 141 32 74 15 136 29 139 31 2 3 -77 144 -175 313 l-180
308 -42 325 c-24 179 -45 335 -48 348 l-5 22 -549 0 -549 0 0 -1005z"/>
<path d="M1200 2110 l0 -1000 589 0 589 0 6 27 c3 16 22 156 42 313 20 157 37
286 39 288 2 2 66 15 144 30 78 14 141 29 141 33 0 4 -46 85 -102 181 -55 95
-135 232 -177 303 l-76 130 -43 325 c-24 179 -46 335 -49 348 l-5 22 -549 0
-549 0 0 -1000z"/>
<path d="M3480 2110 l0 -1000 589 0 589 0 6 27 c3 16 10 66 16 113 5 47 21
172 35 279 14 106 25 197 25 201 0 4 65 20 145 36 80 15 145 31 145 35 0 4
-80 143 -178 310 l-178 304 -42 325 c-24 179 -45 335 -48 348 l-4 22 -550 0
-550 0 0 -1000z"/>
<path d="M242 699 c-156 -30 -249 -170 -208 -311 19 -66 52 -109 110 -142 43
-25 125 -46 179 -46 48 0 146 28 185 52 l34 21 -37 32 -38 31 -45 -23 c-61
-31 -142 -31 -202 0 -59 30 -82 65 -87 129 -5 68 25 122 82 152 53 28 168 29
208 3 32 -21 55 -16 86 17 l22 24 -33 20 c-40 25 -139 52 -183 51 -16 -1 -49
-5 -73 -10z"/>
<path d="M4245 700 c-130 -28 -208 -105 -222 -219 -17 -146 88 -259 258 -277
75 -7 173 14 221 47 l30 21 -32 33 -32 33 -34 -20 c-70 -41 -199 -33 -252 16
-81 72 -67 205 26 259 52 31 138 34 200 7 l52 -22 36 27 c35 27 35 27 15 42
-69 48 -184 71 -266 53z"/>
<path d="M620 455 l0 -245 210 0 210 0 0 45 0 45 -155 0 -155 0 0 55 0 55 150
0 150 0 0 45 0 45 -150 0 -150 0 0 55 0 55 155 0 155 0 0 45 0 45 -210 0 -210
0 0 -245z"/>
<path d="M1160 456 l0 -246 55 0 55 0 0 85 0 85 48 0 c46 0 49 -2 132 -85 l85
-85 62 0 c35 0 63 4 63 8 0 4 -39 43 -87 87 -82 76 -85 79 -60 86 76 20 117
73 117 149 0 56 -31 105 -84 133 -37 20 -58 22 -213 25 l-173 4 0 -246z m325
148 c8 -4 23 -20 31 -36 12 -24 13 -36 4 -58 -16 -40 -49 -50 -155 -50 l-95 0
0 75 0 75 99 0 c55 0 107 -3 116 -6z"/>
<path d="M1750 455 l0 -245 55 0 55 0 0 90 0 90 140 0 140 0 0 45 0 45 -140 0
-140 0 0 65 0 65 150 0 150 0 0 45 0 45 -205 0 -205 0 0 -245z"/>
<path d="M2260 455 l0 -245 55 0 55 0 0 85 0 85 46 0 c45 0 51 -4 139 -85 l93
-85 63 0 64 0 -89 89 -88 88 30 6 c45 9 90 53 103 99 14 55 4 101 -32 143 -46
52 -103 65 -286 65 l-153 0 0 -245z m345 130 c14 -13 25 -36 25 -50 0 -14 -11
-37 -25 -50 -23 -23 -31 -25 -130 -25 l-105 0 0 75 0 75 105 0 c99 0 107 -2
130 -25z"/>
<path d="M2916 460 c-69 -132 -126 -242 -126 -245 0 -3 25 -5 55 -5 l55 0 28
50 27 50 146 0 146 0 23 -50 23 -50 59 0 c32 0 58 2 58 4 0 3 -57 113 -126
245 l-126 241 -58 0 -58 0 -126 -240z m237 35 c26 -52 47 -97 47 -100 0 -3
-45 -5 -100 -5 -55 0 -100 2 -100 5 0 10 95 195 100 195 3 0 27 -43 53 -95z"/>
<path d="M3460 455 l0 -245 55 0 55 0 2 161 3 161 145 -161 c130 -143 148
-160 178 -161 l32 0 0 245 0 245 -55 0 -54 0 -3 -146 -3 -146 -134 146 c-133
145 -134 146 -177 146 l-44 0 0 -245z"/>
<path d="M4610 455 l0 -245 210 0 210 0 0 45 0 45 -155 0 -155 0 0 55 0 55
150 0 150 0 0 45 0 45 -150 0 -150 0 0 55 0 55 155 0 155 0 0 45 0 45 -210 0
-210 0 0 -245z"/>
</g>
</svg>
